<?xml version="1.0" encoding="utf-8"?>
<!-- Generator: Adobe Illustrator 24.3.0, SVG Export Plug-In . SVG Version: 6.00 Build 0)  -->
<svg version="1.1" id="Layer_1" xmlns="http://www.w3.org/2000/svg" xmlns:xlink="http://www.w3.org/1999/xlink" x="0px" y="0px"
	 viewBox="0 0 1229 1598.8" style="enable-background:new 0 0 1229 1598.8;" xml:space="preserve">
<style type="text/css">
	.st0{fill:#E9EDDE;}
</style>
<g>
	<path class="st0" d="M2.4,1598.8c-3.8-3.6-2.6-6.3,0-9.6c43.9-56.1,86.8-112.9,125.1-173c38.4-60.1,70.9-123.2,93.7-191.1
		c19.5-58,27.3-117.5,23.8-178.5c-2.7-46.2-6.2-92.3-8.9-138.5c-1.4-23.6-1.7-47.3-2.3-70.9c-0.7-29.6-1.9-59.3-1.8-88.9
		c0.2-38,5.4-75.6,12.1-113c5.7-31.4,12.4-62.6,22.2-93c9.2-28.4,21.1-55.6,36.4-81.2c1.1-1.8,2.1-3.8,3.1-5.7
		c3.2-6.4,2-11.9-3.1-16.7c-11.5-10.7-23.1-21.1-34.4-32c-17.2-16.7-34.2-33.7-51.2-50.6c-0.3-0.3-0.5-0.8-1-1.8
		c49.9,10.3,99.3,20.5,149,30.7c-2.2-9.4-15-22.5-26.4-25.5c-13.8-3.6-27.9-5.8-41.9-8.7c-26.2-5.3-52.5-10.6-78.7-15.9
		c-4.4-0.9-8.8-1.8-13.3-2.4c-9-1-16.1-5.2-21.4-12.3c-17-22.8-33.8-45.7-50.6-68.6c-2.4-3.3-4.3-7-7.1-11.6
		c55.2,11,109.2,21.8,163.3,32.6c1.2-7.7-4.2-17.4-12.5-20.1c-8.5-2.8-17.3-4.4-26.1-6.1c-41.6-8-83.3-16-124.9-23.8
		c-7.6-1.4-13.3-4.7-17.2-11.9c-12.4-23-25.3-45.7-38-68.5c-0.5-1-1-2-2-4.1c50.4,9.6,100,19,149.5,28.3c2.2-10.4-1.9-17.7-12.1-20
		c-20.9-4.7-41.9-8.9-63-13.2c-23.1-4.7-46.3-9.3-69.4-13.9c-9.8-2-17-7.6-21.4-16.4C35.1,68.9,18.3,35,1,0c6.9,2,13.5,3.3,19.5,5.9
		c64.1,27.4,129.5,51.1,196.5,70c42.1,11.8,84.4,23.2,127.8,29c26,3.5,52.3,5.8,78.6,6.3c51.5,1.1,103,1,154.5,0.8
		c51.7-0.2,103.3-2.3,155-1.4c49.7,0.8,99.5,3.9,148.3,14.9c37.9,8.5,71.8,24.8,101.4,50.1c30,25.6,52.3,57,68.9,92.5
		c6.3,13.5,12.8,27,19.2,40.6c4.1,8.7,10.7,14.3,20.1,17.3c30,9.6,57.8,23.4,81.7,44.5c26.2,23.2,42.7,52.1,52.5,85.5
		c4.8,16.3,5.1,32.4,2.5,48.9c-0.5,2.9-0.6,5.9-1,9.8c-6.8-5.2-13.2-10-19.5-14.9c-13.6-10.7-27.4-21.2-43.7-27.6
		c-18.7-7.3-37.3-6.6-56.9,0.7c2,1.2,3.3,2,4.6,2.7c19.1,9.8,38.1,19.6,57.2,29.4c1.5,0.8,2.9,1.6,4.3,2.5c7.3,4.6,8.8,9.3,4.5,16.7
		c-9.1,15.7-20.9,29.2-34,41.6c-25.7,24.3-56.2,40.6-88.8,53.4c-7.6,3-15.3,5.6-22.7,9c-3,1.4-5.8,3.9-8.1,6.4
		c-16.8,18.9-32.7,38.7-50.4,56.7c-43.4,44-95.5,73.8-154.8,90.9c-34.7,10.1-70.2,15.5-106.4,15c-32.7-0.4-64.5-5.8-95.6-15.9
		c-6.3-2.1-10.1-6.8-13.2-12.3c-6.7-11.9-9.9-25-12.5-38.2c-6.2-31.5-8.4-63.3-7.7-95.4c0-1.5,0.3-2.9,0.4-4.9
		c6.6,3.4,12.7,6.2,16.5,13.1c17.9,32.9,46.2,50.3,83,55c33.7,4.3,66.8,2,98.8-9.9c43.4-16,76-45,100.2-84
		c15.7-25.3,24.3-53.4,32.3-81.8c1-3.5,2-7,3-10.5c0.1-0.4,0-1-0.1-1.8c-3.8,0-7.6-0.1-11.3,0c-22,0.9-43.9,1.8-65.9,2.7
		c-4.3,0.2-8.7,0.2-12.9,1c-8.6,1.7-11.6,8.9-13.8,16.1c-5.7,19-15.7,35.1-31.5,47.4c-11.2,8.7-23.7,14.8-37.1,19.1
		c-9.2,2.9-18.5,6-28,7c-20.9,2.3-38.7-5.9-54.8-18.5c-20.1-15.7-30.3-36.6-33.7-61.7c-7-51.7,0.7-100.5,27.1-145.8
		c13.1-22.4,28.2-43.2,50.4-57.8c21.4-14,44.9-19.7,70-14.9c26.6,5.2,47.6,30.7,49.3,57.8c0,0.7,0.1,1.3,0.1,2
		c1,11.6,6.1,16.3,17.8,15.9c14.6-0.6,29.3-1.4,43.9-2.1c8.5-0.4,17-0.6,25.5-0.7c11.4-0.2,15.2-3.8,14.9-15
		c-0.6-23-3.5-45.8-10.5-67.8c-11.3-35.2-35.2-59-67.7-75.4c-21.9-11.1-45.1-15.5-69.4-15.6c-38.5-0.2-75.4,6.9-109.8,24.7
		c-27.6,14.3-50.8,34-71.6,56.8c-42.7,47.1-68.6,103.2-87.3,163.1c-10.1,32.4-18.9,65.3-21.4,99.2c-1.9,25.9-2.1,51.9-2.1,77.9
		c0,50.5,0.9,101,0.9,151.5c0,33.6,0.1,67.3-1.6,100.9c-6.1,121.5-30,238.9-80.8,350.2c-25.8,56.5-58.3,109-95.6,158.6
		c-25.5,33.9-53.3,65.7-85,93.9c-40.5,36.1-84.8,66.6-135,87.5c-23.9,9.9-48.9,16.9-73.5,25.3C11.9,1595.7,7.2,1597.2,2.4,1598.8z"
		/>
</g>
</svg>
