<svg xmlns="http://www.w3.org/2000/svg" data-name="Layer 4" viewBox="0 0 100 125" x="0px" y="0px"><path d="M79.81,49a.7.7,0,0,0-.19.06h0a.56.56,0,0,0-.17.09l-.15.12a1.19,1.19,0,0,0-.22.33h0a1.07,1.07,0,0,0,0,.76,1,1,0,0,0,.22.33l.15.12a.56.56,0,0,0,.17.09.7.7,0,0,0,.19.06L80,51h0a1,1,0,0,0,.7-.29.83.83,0,0,0,.22-.33h0a1,1,0,0,0-.22-1.09A1,1,0,0,0,79.81,49Z"/><path d="M81,55a1,1,0,0,0-.3-.71,1,1,0,0,0-.9-.27.7.7,0,0,0-.19.06h0a.56.56,0,0,0-.17.09l-.15.12a1.19,1.19,0,0,0-.22.33h0a1.07,1.07,0,0,0,0,.76,1,1,0,0,0,.22.33l.15.12a.56.56,0,0,0,.17.09.7.7,0,0,0,.19.06L80,56h0a1,1,0,0,0,.7-.29.83.83,0,0,0,.22-.33h0A1,1,0,0,0,81,55Z"/><path d="M76.94,48.33a.56.56,0,0,0,.17.09.7.7,0,0,0,.19.06l.2,0a1,1,0,0,0,.7-.29.83.83,0,0,0,.22-.33,1,1,0,0,0-.22-1.09,1,1,0,0,0-.9-.27.7.7,0,0,0-.19.06.56.56,0,0,0-.17.09l-.15.12a1.19,1.19,0,0,0-.22.33,1.07,1.07,0,0,0,0,.76,1,1,0,0,0,.22.33Z"/><path d="M78.2,51.79a1,1,0,0,0-.9-.27.7.7,0,0,0-.19.06.56.56,0,0,0-.17.09l-.15.12a1.19,1.19,0,0,0-.22.33,1.07,1.07,0,0,0,0,.76,1,1,0,0,0,.22.33l.15.12a.56.56,0,0,0,.17.09.7.7,0,0,0,.19.06l.2,0a1,1,0,0,0,.7-.29.83.83,0,0,0,.22-.33,1,1,0,0,0-.22-1.09Z"/><path d="M76,50a1,1,0,0,0-.3-.71,1,1,0,0,0-.9-.27.7.7,0,0,0-.19.06h0a.56.56,0,0,0-.17.09l-.15.12a1.19,1.19,0,0,0-.22.33h0a1.07,1.07,0,0,0,0,.76,1,1,0,0,0,.22.33l.15.12a.56.56,0,0,0,.17.09.7.7,0,0,0,.19.06L75,51h0a1,1,0,0,0,.7-.29.83.83,0,0,0,.22-.33h0A1,1,0,0,0,76,50Z"/><path d="M77.3,56.52a.7.7,0,0,0-.19.06.56.56,0,0,0-.17.09l-.15.12a1.19,1.19,0,0,0-.22.33,1.07,1.07,0,0,0,0,.76,1,1,0,0,0,.22.33l.15.12a.56.56,0,0,0,.17.09.7.7,0,0,0,.19.06l.2,0a1,1,0,0,0,.7-.29.83.83,0,0,0,.22-.33,1,1,0,0,0-.22-1.09A1,1,0,0,0,77.3,56.52Z"/><path d="M75.92,55.39h0a1,1,0,0,0-.22-1.09,1,1,0,0,0-.9-.27.7.7,0,0,0-.19.06h0a.56.56,0,0,0-.17.09l-.15.12a1.19,1.19,0,0,0-.22.33h0a1.07,1.07,0,0,0,0,.76,1,1,0,0,0,.22.33l.15.12a.56.56,0,0,0,.17.09.7.7,0,0,0,.19.06L75,56h0a1,1,0,0,0,.7-.29A.83.83,0,0,0,75.92,55.39Z"/><path d="M78.2,61.79a1,1,0,0,0-.9-.27.7.7,0,0,0-.19.06.56.56,0,0,0-.17.09l-.15.12a1.19,1.19,0,0,0-.22.33,1.07,1.07,0,0,0,0,.76,1,1,0,0,0,.22.33l.15.12a.56.56,0,0,0,.17.09.7.7,0,0,0,.19.06l.2,0a1,1,0,0,0,.7-.29.83.83,0,0,0,.22-.33,1,1,0,0,0-.22-1.09Z"/><path d="M76,60a1,1,0,0,0-.3-.71,1,1,0,0,0-.9-.27.7.7,0,0,0-.19.06h0a.56.56,0,0,0-.17.09l-.15.12a1.19,1.19,0,0,0-.22.33h0a1.07,1.07,0,0,0,0,.76,1,1,0,0,0,.22.33l.15.12a.56.56,0,0,0,.17.09.7.7,0,0,0,.19.06L75,61h0a1,1,0,0,0,.7-.29.83.83,0,0,0,.22-.33h0A1,1,0,0,0,76,60Z"/><path d="M76,65a1,1,0,0,0-.3-.71,1,1,0,0,0-.9-.27.7.7,0,0,0-.19.06h0a.56.56,0,0,0-.17.09l-.15.12a1.19,1.19,0,0,0-.22.33h0a1.07,1.07,0,0,0,0,.76,1,1,0,0,0,.22.33,1.58,1.58,0,0,0,.15.12.56.56,0,0,0,.17.09.7.7,0,0,0,.19.06L75,66h0a1,1,0,0,0,.7-.29.83.83,0,0,0,.22-.33h0A1,1,0,0,0,76,65Z"/><path d="M76,70a1,1,0,0,0-.3-.71,1,1,0,0,0-.9-.27.7.7,0,0,0-.19.06h0a.56.56,0,0,0-.17.09l-.15.12a1.19,1.19,0,0,0-.22.33h0a1.07,1.07,0,0,0,0,.76,1,1,0,0,0,.22.33,1.58,1.58,0,0,0,.15.12.56.56,0,0,0,.17.09.7.7,0,0,0,.19.06L75,71h0a1,1,0,0,0,.7-.29.83.83,0,0,0,.22-.33h0A1,1,0,0,0,76,70Z"/><path d="M74,45a1,1,0,0,0,.07.38,1,1,0,0,0,.22.33l.15.12a.56.56,0,0,0,.17.09.7.7,0,0,0,.19.06L75,46h0a1,1,0,0,0,.7-.29.83.83,0,0,0,.22-.33h0a1,1,0,0,0-.22-1.09,1,1,0,0,0-.9-.27.7.7,0,0,0-.19.06h0a.56.56,0,0,0-.17.09l-.15.12a1.19,1.19,0,0,0-.22.33h0A1,1,0,0,0,74,45Z"/><path d="M71.94,48.33a.56.56,0,0,0,.17.09.7.7,0,0,0,.19.06l.2,0a1,1,0,0,0,.7-.29.83.83,0,0,0,.22-.33,1,1,0,0,0-.22-1.09,1,1,0,0,0-.9-.27.7.7,0,0,0-.19.06.56.56,0,0,0-.17.09l-.15.12a1.19,1.19,0,0,0-.22.33,1.07,1.07,0,0,0,0,.76,1,1,0,0,0,.22.33Z"/><path d="M73.2,51.79a1,1,0,0,0-.9-.27.7.7,0,0,0-.19.06.56.56,0,0,0-.17.09l-.15.12a1.19,1.19,0,0,0-.22.33,1.07,1.07,0,0,0,0,.76,1,1,0,0,0,.22.33l.15.12a.56.56,0,0,0,.17.09.7.7,0,0,0,.19.06l.2,0a1,1,0,0,0,.7-.29.83.83,0,0,0,.22-.33,1,1,0,0,0-.22-1.09Z"/><path d="M73.2,56.79a1,1,0,0,0-.9-.27.7.7,0,0,0-.19.06.56.56,0,0,0-.17.09l-.15.12a1.19,1.19,0,0,0-.22.33,1.07,1.07,0,0,0,0,.76,1,1,0,0,0,.22.33l.15.12a.56.56,0,0,0,.17.09.7.7,0,0,0,.19.06l.2,0a1,1,0,0,0,.7-.29.83.83,0,0,0,.22-.33,1,1,0,0,0-.22-1.09Z"/><path d="M73.2,61.79a1,1,0,0,0-.9-.27.7.7,0,0,0-.19.06.56.56,0,0,0-.17.09l-.15.12a1.19,1.19,0,0,0-.22.33,1.07,1.07,0,0,0,0,.76,1,1,0,0,0,.22.33l.15.12a.56.56,0,0,0,.17.09.7.7,0,0,0,.19.06l.2,0a1,1,0,0,0,.7-.29.83.83,0,0,0,.22-.33,1,1,0,0,0-.22-1.09Z"/><path d="M73.2,66.79a1,1,0,0,0-.9-.27.7.7,0,0,0-.19.06.56.56,0,0,0-.17.09l-.15.12a1.19,1.19,0,0,0-.22.33,1.07,1.07,0,0,0,0,.76,1,1,0,0,0,.22.33,1.58,1.58,0,0,0,.15.12.56.56,0,0,0,.17.09.7.7,0,0,0,.19.06l.2,0a1,1,0,0,0,.7-.29.83.83,0,0,0,.22-.33,1,1,0,0,0-.22-1.09Z"/><path d="M72.3,71.52a.7.7,0,0,0-.19.06.56.56,0,0,0-.17.09l-.15.12a1.19,1.19,0,0,0-.22.33,1.07,1.07,0,0,0,0,.76,1,1,0,0,0,.22.33,1.58,1.58,0,0,0,.15.12.56.56,0,0,0,.17.09.7.7,0,0,0,.19.06l.2,0a1,1,0,0,0,.7-.29.83.83,0,0,0,.22-.33,1,1,0,0,0-.22-1.09A1,1,0,0,0,72.3,71.52Z"/><path d="M70.92,70.39h0a1,1,0,0,0-.22-1.09,1,1,0,0,0-.9-.27.7.7,0,0,0-.19.06h0a.56.56,0,0,0-.17.09l-.15.12a1.19,1.19,0,0,0-.22.33h0a1.07,1.07,0,0,0,0,.76,1,1,0,0,0,.22.33,1.58,1.58,0,0,0,.15.12.56.56,0,0,0,.17.09.7.7,0,0,0,.19.06L70,71h0a1,1,0,0,0,.7-.29A.83.83,0,0,0,70.92,70.39Z"/><path d="M71.94,78.33a.56.56,0,0,0,.17.09.7.7,0,0,0,.19.06l.2,0a1,1,0,0,0,.7-.29.83.83,0,0,0,.22-.33,1,1,0,0,0-.22-1.09,1,1,0,0,0-.9-.27.7.7,0,0,0-.19.06.56.56,0,0,0-.17.09l-.15.12a1.19,1.19,0,0,0-.22.33,1.07,1.07,0,0,0,0,.76,1,1,0,0,0,.22.33A1.58,1.58,0,0,0,71.94,78.33Z"/><path d="M71,75a1,1,0,0,0-.3-.71,1,1,0,0,0-.9-.27.7.7,0,0,0-.19.06h0a.56.56,0,0,0-.17.09l-.15.12a1.19,1.19,0,0,0-.22.33h0a1.07,1.07,0,0,0,0,.76,1,1,0,0,0,.22.33,1.58,1.58,0,0,0,.15.12.56.56,0,0,0,.17.09.7.7,0,0,0,.19.06L70,76h0a1,1,0,0,0,.7-.29.83.83,0,0,0,.22-.33h0A1,1,0,0,0,71,75Z"/><path d="M71.94,83.33a.56.56,0,0,0,.17.09.7.7,0,0,0,.19.06l.2,0a1,1,0,0,0,.7-.29.83.83,0,0,0,.22-.33,1,1,0,0,0-.22-1.09,1,1,0,0,0-.9-.27.7.7,0,0,0-.19.06.56.56,0,0,0-.17.09l-.15.12a1.19,1.19,0,0,0-.22.33,1.07,1.07,0,0,0,0,.76,1,1,0,0,0,.22.33A1.58,1.58,0,0,0,71.94,83.33Z"/><path d="M71,80a1,1,0,0,0-.3-.71,1,1,0,0,0-.9-.27.7.7,0,0,0-.19.06h0a.56.56,0,0,0-.17.09l-.15.12a1.19,1.19,0,0,0-.22.33h0a1.07,1.07,0,0,0,0,.76,1,1,0,0,0,.22.33,1.58,1.58,0,0,0,.15.12.56.56,0,0,0,.17.09.7.7,0,0,0,.19.06L70,81h0a1,1,0,0,0,.7-.29.83.83,0,0,0,.22-.33h0A1,1,0,0,0,71,80Z"/><path d="M73.2,86.79a1,1,0,0,0-.9-.27.7.7,0,0,0-.19.06.56.56,0,0,0-.17.09l-.15.12a1.19,1.19,0,0,0-.22.33,1.07,1.07,0,0,0,0,.76,1,1,0,0,0,.22.33,1.58,1.58,0,0,0,.15.12.56.56,0,0,0,.17.09.7.7,0,0,0,.19.06l.2,0a1,1,0,0,0,.7-.29.83.83,0,0,0,.22-.33,1,1,0,0,0-.22-1.09Z"/><path d="M70.92,85.39h0a1,1,0,0,0-.22-1.09,1,1,0,0,0-.9-.27.7.7,0,0,0-.19.06h0a.56.56,0,0,0-.17.09l-.15.12a1.19,1.19,0,0,0-.22.33h0a1.07,1.07,0,0,0,0,.76,1,1,0,0,0,.22.33,1.58,1.58,0,0,0,.15.12.56.56,0,0,0,.17.09.7.7,0,0,0,.19.06L70,86h0a1,1,0,0,0,.7-.29A.83.83,0,0,0,70.92,85.39Z"/><path d="M69,45a1,1,0,0,0,.07.38,1,1,0,0,0,.22.33l.15.12a.56.56,0,0,0,.17.09.7.7,0,0,0,.19.06L70,46h0a1,1,0,0,0,.7-.29.83.83,0,0,0,.22-.33h0a1,1,0,0,0-.22-1.09,1,1,0,0,0-.9-.27.7.7,0,0,0-.19.06h0a.56.56,0,0,0-.17.09l-.15.12a1.19,1.19,0,0,0-.22.33h0A1,1,0,0,0,69,45Z"/><path d="M69,50a1,1,0,0,0,.07.38,1,1,0,0,0,.22.33l.15.12a.56.56,0,0,0,.17.09.7.7,0,0,0,.19.06L70,51h0a1,1,0,0,0,.7-.29.83.83,0,0,0,.22-.33h0a1,1,0,0,0-.22-1.09,1,1,0,0,0-.9-.27.7.7,0,0,0-.19.06h0a.56.56,0,0,0-.17.09l-.15.12a1.19,1.19,0,0,0-.22.33h0A1,1,0,0,0,69,50Z"/><path d="M66.79,48.21l.15.12a.56.56,0,0,0,.17.09.7.7,0,0,0,.19.06l.2,0a1,1,0,0,0,.7-.29.83.83,0,0,0,.22-.33,1,1,0,0,0-.22-1.09,1,1,0,0,0-.9-.27.7.7,0,0,0-.19.06.56.56,0,0,0-.17.09l-.15.12a1.19,1.19,0,0,0-.22.33,1.07,1.07,0,0,0,0,.76A1,1,0,0,0,66.79,48.21Z"/><path d="M67.3,51.52a.7.7,0,0,0-.19.06.56.56,0,0,0-.17.09l-.15.12a1.19,1.19,0,0,0-.22.33,1.07,1.07,0,0,0,0,.76,1,1,0,0,0,.22.33l.15.12a.56.56,0,0,0,.17.09.7.7,0,0,0,.19.06l.2,0a1,1,0,0,0,.7-.29.83.83,0,0,0,.22-.33,1,1,0,0,0-.22-1.09A1,1,0,0,0,67.3,51.52Z"/><path d="M65.92,50.39h0a1,1,0,0,0-.22-1.09,1,1,0,0,0-.9-.27.7.7,0,0,0-.19.06h0a.56.56,0,0,0-.17.09l-.15.12a1.19,1.19,0,0,0-.22.33h0a1.07,1.07,0,0,0,0,.76,1,1,0,0,0,.22.33l.15.12a.56.56,0,0,0,.17.09.7.7,0,0,0,.19.06L65,51h0a1,1,0,0,0,.7-.29A.83.83,0,0,0,65.92,50.39Z"/><path d="M66.79,58.21l.15.12a.56.56,0,0,0,.17.09.7.7,0,0,0,.19.06l.2,0a1,1,0,0,0,.7-.29.83.83,0,0,0,.22-.33,1,1,0,0,0-.22-1.09,1,1,0,0,0-.9-.27.7.7,0,0,0-.19.06.56.56,0,0,0-.17.09l-.15.12a1.19,1.19,0,0,0-.22.33,1.07,1.07,0,0,0,0,.76A1,1,0,0,0,66.79,58.21Z"/><path d="M70,56a1,1,0,0,0,.7-.29.83.83,0,0,0,.22-.33h0a1,1,0,0,0-.22-1.09,1,1,0,0,0-.9-.27.7.7,0,0,0-.19.06h0a.56.56,0,0,0-.17.09l-.15.12a1.19,1.19,0,0,0-.22.33h0a1.07,1.07,0,0,0,0,.76,1,1,0,0,0,.22.33l.15.12a.56.56,0,0,0,.17.09.7.7,0,0,0,.19.06L70,56Z"/><path d="M66.79,63.21l.15.12a.56.56,0,0,0,.17.09.7.7,0,0,0,.19.06l.2,0a1,1,0,0,0,.7-.29.83.83,0,0,0,.22-.33,1,1,0,0,0-.22-1.09,1,1,0,0,0-.9-.27.7.7,0,0,0-.19.06.56.56,0,0,0-.17.09l-.15.12a1.19,1.19,0,0,0-.22.33,1.07,1.07,0,0,0,0,.76A1,1,0,0,0,66.79,63.21Z"/><path d="M70,61a1,1,0,0,0,.7-.29.83.83,0,0,0,.22-.33h0a1,1,0,0,0-.22-1.09,1,1,0,0,0-.9-.27.7.7,0,0,0-.19.06h0a.56.56,0,0,0-.17.09l-.15.12a1.19,1.19,0,0,0-.22.33h0a1.07,1.07,0,0,0,0,.76,1,1,0,0,0,.22.33l.15.12a.56.56,0,0,0,.17.09.7.7,0,0,0,.19.06L70,61Z"/><path d="M66.79,68.21a1.58,1.58,0,0,0,.15.12.56.56,0,0,0,.17.09.7.7,0,0,0,.19.06l.2,0a1,1,0,0,0,.7-.29.83.83,0,0,0,.22-.33,1,1,0,0,0-.22-1.09,1,1,0,0,0-.9-.27.7.7,0,0,0-.19.06.56.56,0,0,0-.17.09l-.15.12a1.19,1.19,0,0,0-.22.33,1.07,1.07,0,0,0,0,.76A1,1,0,0,0,66.79,68.21Z"/><path d="M70,66a1,1,0,0,0,.7-.29.83.83,0,0,0,.22-.33h0a1,1,0,0,0-.22-1.09,1,1,0,0,0-.9-.27.7.7,0,0,0-.19.06h0a.56.56,0,0,0-.17.09l-.15.12a1.19,1.19,0,0,0-.22.33h0a1.07,1.07,0,0,0,0,.76,1,1,0,0,0,.22.33,1.58,1.58,0,0,0,.15.12.56.56,0,0,0,.17.09.7.7,0,0,0,.19.06L70,66Z"/><path d="M66.79,73.21a1.58,1.58,0,0,0,.15.12.56.56,0,0,0,.17.09.7.7,0,0,0,.19.06l.2,0a1,1,0,0,0,.7-.29.83.83,0,0,0,.22-.33,1,1,0,0,0-.22-1.09,1,1,0,0,0-.9-.27.7.7,0,0,0-.19.06.56.56,0,0,0-.17.09l-.15.12a1.19,1.19,0,0,0-.22.33,1.07,1.07,0,0,0,0,.76A1,1,0,0,0,66.79,73.21Z"/><path d="M66.79,78.21a1.58,1.58,0,0,0,.15.12.56.56,0,0,0,.17.09.7.7,0,0,0,.19.06l.2,0a1,1,0,0,0,.7-.29.83.83,0,0,0,.22-.33,1,1,0,0,0-.22-1.09,1,1,0,0,0-.9-.27.7.7,0,0,0-.19.06.56.56,0,0,0-.17.09l-.15.12a1.19,1.19,0,0,0-.22.33,1.07,1.07,0,0,0,0,.76A1,1,0,0,0,66.79,78.21Z"/><path d="M68.2,81.79a1,1,0,0,0-.9-.27.7.7,0,0,0-.19.06.56.56,0,0,0-.17.09l-.15.12a1.19,1.19,0,0,0-.22.33,1.07,1.07,0,0,0,0,.76,1,1,0,0,0,.22.33,1.58,1.58,0,0,0,.15.12.56.56,0,0,0,.17.09.7.7,0,0,0,.19.06l.2,0a1,1,0,0,0,.7-.29.83.83,0,0,0,.22-.33,1,1,0,0,0-.22-1.09Z"/><path d="M68.2,86.79a1,1,0,0,0-.9-.27.7.7,0,0,0-.19.06.56.56,0,0,0-.17.09l-.15.12a1.19,1.19,0,0,0-.22.33,1.07,1.07,0,0,0,0,.76,1,1,0,0,0,.22.33,1.58,1.58,0,0,0,.15.12.56.56,0,0,0,.17.09.7.7,0,0,0,.19.06l.2,0a1,1,0,0,0,.7-.29.83.83,0,0,0,.22-.33,1,1,0,0,0-.22-1.09Z"/><path d="M65.92,85.39h0a1,1,0,0,0-.22-1.09,1,1,0,0,0-.9-.27.7.7,0,0,0-.19.06h0a.56.56,0,0,0-.17.09l-.15.12a1.19,1.19,0,0,0-.22.33h0a1.07,1.07,0,0,0,0,.76,1,1,0,0,0,.22.33,1.58,1.58,0,0,0,.15.12.56.56,0,0,0,.17.09.7.7,0,0,0,.19.06L65,86h0a1,1,0,0,0,.7-.29A.83.83,0,0,0,65.92,85.39Z"/><path d="M64,75a1,1,0,0,0,.07.38,1,1,0,0,0,.22.33,1.58,1.58,0,0,0,.15.12.56.56,0,0,0,.17.09.7.7,0,0,0,.19.06L65,76h0a1,1,0,0,0,.7-.29.83.83,0,0,0,.22-.33h0a1,1,0,0,0-.22-1.09,1,1,0,0,0-.9-.27.7.7,0,0,0-.19.06h0a.56.56,0,0,0-.17.09l-.15.12a1.19,1.19,0,0,0-.22.33h0A1,1,0,0,0,64,75Z"/><path d="M65,71a1,1,0,0,0,.7-.29.83.83,0,0,0,.22-.33h0a1,1,0,0,0-.22-1.09,1,1,0,0,0-.9-.27.7.7,0,0,0-.19.06h0a.56.56,0,0,0-.17.09l-.15.12a1.19,1.19,0,0,0-.22.33h0a1.07,1.07,0,0,0,0,.76,1,1,0,0,0,.22.33,1.58,1.58,0,0,0,.15.12.56.56,0,0,0,.17.09.7.7,0,0,0,.19.06L65,71Z"/><path d="M61.79,78.21a1.58,1.58,0,0,0,.15.12.56.56,0,0,0,.17.09.7.7,0,0,0,.19.06l.2,0a1,1,0,0,0,.7-.29.83.83,0,0,0,.22-.33,1,1,0,0,0-.22-1.09,1,1,0,0,0-.9-.27.7.7,0,0,0-.19.06.56.56,0,0,0-.17.09l-.15.12a1.19,1.19,0,0,0-.22.33,1.07,1.07,0,0,0,0,.76A1,1,0,0,0,61.79,78.21Z"/><path d="M61.79,83.21a1.58,1.58,0,0,0,.15.12.56.56,0,0,0,.17.09.7.7,0,0,0,.19.06l.2,0a1,1,0,0,0,.7-.29.83.83,0,0,0,.22-.33,1,1,0,0,0-.22-1.09,1,1,0,0,0-.9-.27.7.7,0,0,0-.19.06.56.56,0,0,0-.17.09l-.15.12a1.19,1.19,0,0,0-.22.33,1.07,1.07,0,0,0,0,.76A1,1,0,0,0,61.79,83.21Z"/><path d="M65,81a1,1,0,0,0,.7-.29.83.83,0,0,0,.22-.33h0a1,1,0,0,0-.22-1.09,1,1,0,0,0-.9-.27.7.7,0,0,0-.19.06h0a.56.56,0,0,0-.17.09l-.15.12a1.19,1.19,0,0,0-.22.33h0a1.07,1.07,0,0,0,0,.76,1,1,0,0,0,.22.33,1.58,1.58,0,0,0,.15.12.56.56,0,0,0,.17.09.7.7,0,0,0,.19.06L65,81Z"/><path d="M63.2,86.79a1,1,0,0,0-.9-.27.7.7,0,0,0-.19.06.56.56,0,0,0-.17.09l-.15.12a1.19,1.19,0,0,0-.22.33,1.07,1.07,0,0,0,0,.76,1,1,0,0,0,.22.33,1.58,1.58,0,0,0,.15.12.56.56,0,0,0,.17.09.7.7,0,0,0,.19.06l.2,0a1,1,0,0,0,.7-.29.83.83,0,0,0,.22-.33,1,1,0,0,0-.22-1.09Z"/><path d="M60,51a1,1,0,0,0,.7-.29.83.83,0,0,0,.22-.33h0a1,1,0,0,0-.22-1.09,1,1,0,0,0-.9-.27.7.7,0,0,0-.19.06h0a.56.56,0,0,0-.17.09l-.15.12a1.19,1.19,0,0,0-.22.33h0a1.07,1.07,0,0,0,0,.76,1,1,0,0,0,.22.33l.15.12a.56.56,0,0,0,.17.09.7.7,0,0,0,.19.06L60,51Z"/><path d="M46,35.6c.13-1.28-.25-3.15-2.78-4.79a1,1,0,0,0-1.35.24l-6,8.14A1,1,0,0,0,36,40.54a4.05,4.05,0,0,0,2.73.93A7,7,0,0,0,41.2,41C43.39,40.1,45.71,38.11,46,35.6Zm-5.5,3.5a4.35,4.35,0,0,1-2.35.32L42.85,33A2.77,2.77,0,0,1,44,35.4C43.83,36.8,42.36,38.35,40.47,39.1Z"/><path d="M41.68,80.36A29.32,29.32,0,0,0,40.08,90a1,1,0,0,0,1,1H78.93a1,1,0,0,0,.93-.63,1,1,0,0,0-.1-.91v0l-1.47-2.16c-1.26-2.89-2.47-9.81,3.29-24h0c2.84-7,2.49-13.73-1-19.67l1.8.17a1,1,0,0,0,.81-1.69L77.9,36.65a1.15,1.15,0,0,0-.26-.19c-5.35-2.7-8.94-4.36-11.19-5.34l2.4-1.38.14-.1,5.46-4.58a1,1,0,0,0,.29-1.13,1,1,0,0,0-1-.64A26.41,26.41,0,0,1,63,21.46c-1.84-.66-3.29-1.17-4.8-.89-1.21.22-4.46.84-7.94,1.51l7.53-11.53a1,1,0,0,0-1.49-1.31L38.65,24.45a.94.94,0,0,0-.14.19s0,0-.07.07l0,.06h0L31.8,36.34c-.49.67-7,9.23-14.52,10.91a1,1,0,0,0-.78,1V57.5a1,1,0,0,0,.6.92,1,1,0,0,0,1.08-.19l4-3.71A61.55,61.55,0,0,0,32.47,49.6a6.33,6.33,0,0,1-1.12,2.63c-1.69,2.34-5,3.78-9.8,4.28a1,1,0,0,0-.87.73,1,1,0,0,0,.38,1.07l10.86,7.84a1,1,0,0,0,.59.19,1,1,0,0,0,.47-.12,1,1,0,0,0,.53-.92l-.24-5.44c2.32-1.5,7.74-5,8.84-6.16a9.07,9.07,0,0,1,1.34-.09c2.21-.07,6.18-.2,7.81-3.9a7.19,7.19,0,0,1,2.3,1.56h0s0,0,0,0a5.92,5.92,0,0,1,1.5,5,11.89,11.89,0,0,1-.47,2.1c-.9,2.86-2.93,5.57-5.28,8.7-2.67,3.58-5.77,7.74-7.63,13Zm-10-21.87a1,1,0,0,0-.46.88l.17,4-7.18-5.18c4.09-.78,7-2.37,8.73-4.74a8.15,8.15,0,0,0,1.48-6.15,1,1,0,0,0-1.75-.43c-1.58,1.93-8.77,4.91-11.4,5.89a1.15,1.15,0,0,0-.33.21L18.5,55.21V49c8.2-2.28,14.67-11.15,15-11.53l.06-.09,5.62-9.85a4.54,4.54,0,0,0,2.49.63,8,8,0,0,0,.83-.05,8.26,8.26,0,0,0,6.31-3.72c4.12-.79,8.36-1.61,9.78-1.87,1-.18,2.15.24,3.77.81a28.73,28.73,0,0,0,8.77,1.93l-3.31,2.78-4,2.34a1,1,0,0,0-.2,1.59,1.16,1.16,0,0,0,.43.25h0c1.72.7,5.64,2.41,12.63,5.94l3.31,3.39-21-2a1,1,0,0,0-1,.58,1,1,0,0,0,.21,1.14l4.11,4L50.48,47.46a1,1,0,0,0-.78.71c-.85,3-3.36,3.35-6.31,3.44-1.28,0-2.2.06-2.72.71A106.08,106.08,0,0,1,31.71,58.49ZM47.28,23s-.05.09-.08.14c-.82,1.89-3.22,2.9-5.09,3a2.84,2.84,0,0,1-2-.31v0L52.23,15.38ZM80.77,59.39a.33.33,0,0,0-.06-.1,1,1,0,0,0-.9-.27.7.7,0,0,0-.19.06h0a.56.56,0,0,0-.17.09l-.15.12a1.19,1.19,0,0,0-.22.33h0a1.07,1.07,0,0,0,0,.76,1,1,0,0,0,.22.33l.15.12a.56.56,0,0,0,.17.09.7.7,0,0,0,.19.06L80,61h0a.82.82,0,0,0,.31-.07c-.18.54-.38,1.07-.6,1.61-.59,1.48-1.11,2.86-1.57,4.19a1,1,0,0,0-.84-.22.7.7,0,0,0-.19.06.56.56,0,0,0-.17.09l-.15.12a1.19,1.19,0,0,0-.22.33,1.07,1.07,0,0,0,0,.76,1,1,0,0,0,.22.33,1.58,1.58,0,0,0,.15.12.56.56,0,0,0,.17.09.7.7,0,0,0,.19.06l.2,0h.06a55,55,0,0,0-1.62,6.18.11.11,0,0,1,0,0,1,1,0,0,0-.22-.33,1,1,0,0,0-.9-.27.7.7,0,0,0-.19.06h0a.56.56,0,0,0-.17.09l-.15.12a1.19,1.19,0,0,0-.22.33h0a1.07,1.07,0,0,0,0,.76,1,1,0,0,0,.22.33,1.58,1.58,0,0,0,.15.12.56.56,0,0,0,.17.09.7.7,0,0,0,.19.06L75,76h0a1,1,0,0,0,.7-.29.56.56,0,0,0,0-.08c-.21,1.23-.36,2.36-.44,3.41a1.05,1.05,0,0,0-.5,0,.7.7,0,0,0-.19.06h0a.56.56,0,0,0-.17.09l-.15.12a1.19,1.19,0,0,0-.22.33h0a1.07,1.07,0,0,0,0,.76,1,1,0,0,0,.22.33,1.58,1.58,0,0,0,.15.12.56.56,0,0,0,.17.09.7.7,0,0,0,.19.06L75,81h0a1,1,0,0,0,.23-.05,21.48,21.48,0,0,0,.17,3.13,1,1,0,0,0-.59-.07.7.7,0,0,0-.19.06h0a.56.56,0,0,0-.17.09l-.15.12a1.19,1.19,0,0,0-.22.33h0a1.07,1.07,0,0,0,0,.76,1,1,0,0,0,.22.33,1.58,1.58,0,0,0,.15.12.56.56,0,0,0,.17.09.7.7,0,0,0,.19.06L75,86h0a1,1,0,0,0,.69-.29,13.43,13.43,0,0,0,.8,2.44s0,0,0,0c.12.27.24.51.36.73l0,.08h-17v0c0-.14,0-.3,0-.47a.49.49,0,0,0,0-.12c0-.19,0-.41,0-.63a1.09,1.09,0,0,0,0-.18c0-.23,0-.49,0-.76v-.12c0-.22,0-.46,0-.71l.07,0L60,86h0a1,1,0,0,0,.7-.29.83.83,0,0,0,.22-.33h0a1,1,0,0,0-.22-1.09,1,1,0,0,0-.9-.27h-.05c0-.22,0-.43,0-.65a1.21,1.21,0,0,0,0-.19c0-.36.05-.73.08-1.12a1,1,0,0,0,0-.17L60,81h0a1,1,0,0,0,.7-.29.83.83,0,0,0,.22-.33h0a1,1,0,0,0-.22-1.09,1,1,0,0,0-.5-.26v0a2,2,0,0,1,0-.24c.06-.45.14-.9.22-1.37l0-.17c.09-.49.2-1,.31-1.5l.06-.25a.43.43,0,0,1,0-.07h0A1,1,0,0,0,61,75s0,0,0,0c.08-.37.17-.73.27-1.11,0-.09,0-.19.07-.28.07-.25.14-.5.22-.75a.17.17,0,0,0,0,.07,1,1,0,0,0,.22.33,1.58,1.58,0,0,0,.15.12.56.56,0,0,0,.17.09.7.7,0,0,0,.19.06l.2,0a1,1,0,0,0,.7-.29.83.83,0,0,0,.22-.33,1,1,0,0,0-.22-1.09,1,1,0,0,0-.9-.27.7.7,0,0,0-.19.06.56.56,0,0,0-.17.09l-.07,0c.16-.51.33-1,.51-1.54l.12-.35c.18-.51.38-1,.59-1.55a.67.67,0,0,0,.11-.07.83.83,0,0,0,.22-.33,1,1,0,0,0,.08-.38.7.7,0,0,0,0-.14c.18-.43.36-.86.56-1.3v0c.07-.15.11-.29.18-.43a.67.67,0,0,0,.07.11,1.58,1.58,0,0,0,.15.12.56.56,0,0,0,.17.09.7.7,0,0,0,.19.06L65,66h0a1,1,0,0,0,.7-.29.83.83,0,0,0,.22-.33h0A1,1,0,0,0,64.82,64a13.89,13.89,0,0,0,.68-3.17,1.37,1.37,0,0,0,.2-.13.83.83,0,0,0,.22-.33h0a1,1,0,0,0-.22-1.09l-.18-.14v-.1a8.7,8.7,0,0,0-.88-3.11l.15.05L65,56h0a1,1,0,0,0,.7-.29.83.83,0,0,0,.22-.33h0a1,1,0,0,0-.22-1.09,1,1,0,0,0-.9-.27.7.7,0,0,0-.19.06h0a.56.56,0,0,0-.17.09l-.15.12a1.19,1.19,0,0,0-.22.33h0a.78.78,0,0,0,0,.22l-.09-.13c-.06-.09-.14-.17-.2-.26L63.33,54l-.26-.27-.24-.25a1.07,1.07,0,0,0,.37-.22.83.83,0,0,0,.22-.33,1,1,0,0,0-.22-1.09,1,1,0,0,0-.9-.27.7.7,0,0,0-.19.06.56.56,0,0,0-.17.09l-.15.12a1.19,1.19,0,0,0-.22.33.85.85,0,0,0,0,.23l-.37-.25-.31-.2-.48-.29-.3-.16-.54-.28-.23-.11c-.52-.24-1-.45-1.52-.62l-.23-.08-.47-.16-.26-.07-.4-.12L56.18,50,56,49.9a1.26,1.26,0,0,0,0-.28,1,1,0,0,0-.22-.33,1,1,0,0,0-.9-.27.7.7,0,0,0-.19.06h0a.56.56,0,0,0-.17.09l-.13.1c-.16-.13-.32-.28-.49-.4l3.08-.57,0,0a.56.56,0,0,0,.17.09.7.7,0,0,0,.19.06l.2,0a1,1,0,0,0,.7-.29,1.13,1.13,0,0,0,.12-.18l3.19-.59s0,0,0,.06a1,1,0,0,0,.07.38,1,1,0,0,0,.22.33l.15.12a.56.56,0,0,0,.17.09.7.7,0,0,0,.19.06l.2,0a1,1,0,0,0,.7-.29.83.83,0,0,0,.22-.33.94.94,0,0,0,0-.76l0,0,1-.2a1,1,0,0,0,.78-.69,2,2,0,0,0,0-.24,1.16,1.16,0,0,0,.45-.24.83.83,0,0,0,.22-.33h0a1,1,0,0,0-.22-1.09,1,1,0,0,0-.9-.27.7.7,0,0,0-.19.06h0a.56.56,0,0,0-.17.09l-.15.12-.11.16L63,43.32a1,1,0,0,0,.17-.11.83.83,0,0,0,.22-.33.94.94,0,0,0,0-.76s-.06-.08-.08-.12l3.2.3a.71.71,0,0,0,0,.2,1,1,0,0,0,.07.38,1,1,0,0,0,.22.33l.15.12a.56.56,0,0,0,.17.09.7.7,0,0,0,.19.06l.2,0a1,1,0,0,0,.7-.29.83.83,0,0,0,.22-.33,1,1,0,0,0,.08-.38h0l3,.29s0,.07,0,.1a1,1,0,0,0,.22.33l.15.12a.56.56,0,0,0,.17.09.7.7,0,0,0,.19.06l.2,0a1,1,0,0,0,.7-.29.65.65,0,0,0,.17-.26l3.51.33.06,0a.56.56,0,0,0,.17.09.7.7,0,0,0,.19.06l.2,0a.93.93,0,0,0,.43-.12l.17,0c.33.49.64,1,.92,1.47,0,.05,0,.09,0,.14a1,1,0,0,0,.07.38,1,1,0,0,0,.22.33l.15.12.13.07A18.68,18.68,0,0,1,80.77,59.39ZM42.1,89a27.42,27.42,0,0,1,1.08-6.8,12.53,12.53,0,0,0,6.59,1.94,13.53,13.53,0,0,0,8.15-3l0,.23s0,.09,0,.13q-.06.66-.09,1.26c0,.09,0,.17,0,.25,0,.39,0,.77-.05,1.14v.17c0,.35,0,.68,0,1a.49.49,0,0,0,0,.12c0,.34,0,.66,0,1v.18q0,.44,0,.84a.34.34,0,0,0,0,.1c0,.24,0,.47,0,.68v.1c0,.22,0,.41,0,.59V89ZM61.66,42l-.17-.17.26,0A.67.67,0,0,0,61.66,42ZM56.55,59a13.14,13.14,0,0,0,.55-2.46,8.6,8.6,0,0,0-.57-4.43l.16.06c.15,0,.3.1.45.15l.3.11.5.2.29.12q.35.15.69.33l.11.06c.26.13.52.29.78.45l.23.15c.18.12.36.24.54.38a2.65,2.65,0,0,1,.26.21c.16.13.32.26.47.4l.25.24c.15.16.29.32.43.49l.2.24a6.34,6.34,0,0,1,.54.81,6.53,6.53,0,0,1,.67,1.82,10.45,10.45,0,0,1-.82,6,12.59,12.59,0,0,1-10.3,2.21A26.89,26.89,0,0,0,56.55,59ZM51,68.32l0,0a12.78,12.78,0,0,0,4,.61,14.58,14.58,0,0,0,6.28-1.46c-.23.57-.45,1.14-.65,1.7l-.12.33c-.2.57-.39,1.13-.56,1.69l0,.08c-.18.57-.34,1.13-.49,1.69l-.09.33q-.21.81-.39,1.59c0,.1,0,.19-.07.29-.11.5-.21,1-.31,1.49,0,0,0,.08,0,.12-.1.51-.18,1-.26,1.51v0c-7,6.42-12.74,3.21-14.45,2C45.58,75.55,48.38,71.79,51,68.32Z"/><text x="0" y="115" fill="#000000" font-size="5px" font-weight="bold" font-family="'Helvetica Neue', Helvetica, Arial-Unicode, Arial, Sans-serif">Created by Lars Meiertoberens</text><text x="0" y="120" fill="#000000" font-size="5px" font-weight="bold" font-family="'Helvetica Neue', Helvetica, Arial-Unicode, Arial, Sans-serif">from the Noun Project</text></svg>