<svg xmlns="http://www.w3.org/2000/svg" xmlns:xlink="http://www.w3.org/1999/xlink" xmlns:serif="http://www.serif.com/" viewBox="0 0 56 70" version="1.1" xml:space="preserve" style="" x="0px" y="0px" fill-rule="evenodd" clip-rule="evenodd" stroke-linejoin="round" stroke-miterlimit="2"><g transform="matrix(1,0,0,1,-84,-228)"><g><g transform="matrix(0.750455,0,0,0.750455,75.728,233.541)"><path d="M30.982,61.908C31.342,61.908 31.634,61.617 31.634,61.257C31.634,61.257 31.64,57.938 31.645,55.226C31.647,54.136 31.215,53.09 30.445,52.318C29.675,51.547 28.63,51.114 27.54,51.114C25.383,51.114 22.616,51.114 20.458,51.114C19.368,51.114 18.322,51.547 17.552,52.319C16.782,53.09 16.351,54.136 16.353,55.227C16.358,57.939 16.365,61.257 16.365,61.257C16.365,61.617 16.657,61.908 17.017,61.908L30.982,61.908ZM30.33,60.603L17.669,60.603C17.669,60.603 17.658,55.224 17.658,55.224C17.657,54.481 17.951,53.767 18.476,53.241C19.001,52.715 19.714,52.419 20.458,52.419L27.54,52.419C28.284,52.419 28.996,52.715 29.522,53.241C30.047,53.767 30.341,54.48 30.34,55.223L30.33,60.603Z"/></g><g transform="matrix(0.750455,0,0,0.750455,88.9248,233.541)"><path d="M30.982,61.908C31.342,61.908 31.634,61.617 31.634,61.257C31.634,61.257 31.64,57.938 31.645,55.226C31.647,54.136 31.215,53.09 30.445,52.318C29.675,51.547 28.63,51.114 27.54,51.114C25.383,51.114 22.616,51.114 20.458,51.114C19.368,51.114 18.322,51.547 17.552,52.319C16.782,53.09 16.351,54.136 16.353,55.227C16.358,57.939 16.365,61.257 16.365,61.257C16.365,61.617 16.657,61.908 17.017,61.908L30.982,61.908ZM30.33,60.603L17.669,60.603C17.669,60.603 17.658,55.224 17.658,55.224C17.657,54.481 17.951,53.767 18.476,53.241C19.001,52.715 19.714,52.419 20.458,52.419L27.54,52.419C28.284,52.419 28.996,52.715 29.522,53.241C30.047,53.767 30.341,54.48 30.34,55.223L30.33,60.603Z"/></g><g transform="matrix(0.750455,0,0,0.750455,102.122,233.541)"><path d="M30.982,61.908C31.342,61.908 31.634,61.617 31.634,61.257C31.634,61.257 31.64,57.938 31.645,55.226C31.647,54.136 31.215,53.09 30.445,52.318C29.675,51.547 28.63,51.114 27.54,51.114C25.383,51.114 22.616,51.114 20.458,51.114C19.368,51.114 18.322,51.547 17.552,52.319C16.782,53.09 16.351,54.136 16.353,55.227C16.358,57.939 16.365,61.257 16.365,61.257C16.365,61.617 16.657,61.908 17.017,61.908L30.982,61.908ZM30.33,60.603L17.669,60.603C17.669,60.603 17.658,55.224 17.658,55.224C17.657,54.481 17.951,53.767 18.476,53.241C19.001,52.715 19.714,52.419 20.458,52.419L27.54,52.419C28.284,52.419 28.996,52.715 29.522,53.241C30.047,53.767 30.341,54.48 30.34,55.223L30.33,60.603Z"/></g><g transform="matrix(1.00061,0,0,1.00061,82.9277,217.466)"><path d="M23.974,46.511C22.048,46.511 20.484,48.074 20.484,50C20.484,51.926 22.048,53.489 23.974,53.489C25.899,53.489 27.463,51.926 27.463,50C27.463,48.074 25.899,46.511 23.974,46.511ZM23.974,47.489C25.359,47.489 26.484,48.614 26.484,50C26.484,51.386 25.359,52.511 23.974,52.511C22.588,52.511 21.463,51.386 21.463,50C21.463,48.614 22.588,47.489 23.974,47.489Z"/></g><g transform="matrix(1.00061,0,0,1.00061,96.1245,217.466)"><path d="M23.974,46.511C22.048,46.511 20.484,48.074 20.484,50C20.484,51.926 22.048,53.489 23.974,53.489C25.899,53.489 27.463,51.926 27.463,50C27.463,48.074 25.899,46.511 23.974,46.511ZM23.974,47.489C25.359,47.489 26.484,48.614 26.484,50C26.484,51.386 25.359,52.511 23.974,52.511C22.588,52.511 21.463,51.386 21.463,50C21.463,48.614 22.588,47.489 23.974,47.489Z"/></g><g transform="matrix(-0.846181,0,0,0.846181,139.169,-22.6567)"><path d="M46.579,307.315L46.579,310.685C46.579,312.283 45.283,313.579 43.685,313.579L42.579,313.579C42.579,313.579 42.579,317 42.579,317C42.579,317.234 42.438,317.445 42.222,317.535C42.005,317.624 41.756,317.575 41.591,317.409L37.76,313.579C37.76,313.579 36.315,313.579 36.315,313.579C34.717,313.579 33.421,312.283 33.421,310.685C33.421,309.626 33.421,308.374 33.421,307.315C33.421,306.548 33.726,305.812 34.269,305.269C34.812,304.726 35.548,304.421 36.315,304.421C38.437,304.421 41.563,304.421 43.685,304.421C44.452,304.421 45.188,304.726 45.731,305.269C46.274,305.812 46.579,306.548 46.579,307.315ZM45.421,307.315C45.421,306.855 45.238,306.413 44.913,306.087C44.587,305.762 44.145,305.579 43.685,305.579L36.315,305.579C35.855,305.579 35.413,305.762 35.087,306.087C34.762,306.413 34.579,306.855 34.579,307.315C34.579,308.374 34.579,309.626 34.579,310.685C34.579,311.644 35.356,312.421 36.315,312.421L38,312.421C38.154,312.421 38.301,312.482 38.409,312.591L41.421,315.603C41.421,315.603 41.421,313 41.421,313C41.421,312.68 41.68,312.421 42,312.421L43.685,312.421C44.644,312.421 45.421,311.644 45.421,310.685C45.421,309.626 45.421,308.374 45.421,307.315Z"/></g><g transform="matrix(-0.676945,0,0,0.676945,132.4,29.6373)"><circle cx="40" cy="309" r="1"/></g><g transform="matrix(-0.676945,0,0,0.676945,129.692,29.6373)"><circle cx="40" cy="309" r="1"/></g><g transform="matrix(-0.676945,0,0,0.676945,135.108,29.6373)"><circle cx="40" cy="309" r="1"/></g><g transform="matrix(0.979592,0,0,0.979592,2.28571,5.22449)"><path d="M97.5,244.279C96.14,244.603 95.127,245.827 95.127,247.287C95.127,248.993 96.512,250.379 98.218,250.379C99.925,250.379 101.31,248.993 101.31,247.287C101.31,245.675 100.075,244.35 98.5,244.207L98.5,234C98.5,233.602 98.658,233.221 98.939,232.939C99.221,232.658 99.602,232.5 100,232.5C106.568,232.5 127.432,232.5 134,232.5C134.398,232.5 134.779,232.658 135.061,232.939C135.342,233.221 135.5,233.602 135.5,234L135.5,254C135.5,254.398 135.342,254.779 135.061,255.061C134.779,255.342 134.398,255.5 134,255.5L103.263,255.5L103.266,253.753C103.268,253.026 102.98,252.329 102.467,251.814C101.953,251.3 101.256,251.011 100.529,251.011C99.131,251.011 97.338,251.011 95.94,251.011C95.213,251.011 94.516,251.3 94.003,251.815C93.49,252.329 93.202,253.027 93.203,253.753L93.21,257.186C93.059,257.214 92.912,257.257 92.771,257.312L91.492,255.704C91.239,255.387 91.126,254.982 91.178,254.58C91.229,254.178 91.441,253.814 91.766,253.57L92.709,252.863C92.929,252.698 92.974,252.384 92.809,252.163C92.643,251.942 92.329,251.898 92.109,252.063C92.109,252.063 91.677,252.387 91.166,252.77C90.625,253.176 90.272,253.782 90.186,254.452C90.1,255.122 90.289,255.799 90.709,256.327L91.926,257.856C91.847,257.933 91.773,258.016 91.705,258.104C91.231,258.71 91.063,259.502 91.25,260.248C91.351,260.651 91.452,261.057 91.545,261.427C91.823,262.54 92.823,263.321 93.97,263.321L94.498,263.321L94.498,264.365C94.134,264.24 93.744,264.172 93.338,264.172C91.371,264.172 89.774,265.769 89.774,267.736C89.774,269.703 91.371,271.3 93.338,271.3C95.043,271.3 96.47,270.101 96.82,268.5L101.472,268.5C101.748,268.5 101.972,268.276 101.972,268L101.972,263.321L102.5,263.321C103.647,263.321 104.647,262.54 104.925,261.427C105.018,261.057 105.119,260.651 105.22,260.248C105.406,259.502 105.239,258.71 104.765,258.104C104.388,257.621 103.851,257.298 103.26,257.186L103.262,256.5L134,256.5C134.663,256.5 135.299,256.237 135.768,255.768C136.237,255.299 136.5,254.663 136.5,254C136.5,249.48 136.5,238.52 136.5,234C136.5,233.337 136.237,232.701 135.768,232.232C135.299,231.763 134.663,231.5 134,231.5C127.432,231.5 106.568,231.5 100,231.5C99.337,231.5 98.701,231.763 98.232,232.232C97.763,232.701 97.5,233.337 97.5,234L97.5,244.279ZM93.338,265.172C94.753,265.172 95.903,266.321 95.903,267.736C95.903,269.151 94.753,270.3 93.338,270.3C91.923,270.3 90.774,269.151 90.774,267.736C90.774,266.321 91.923,265.172 93.338,265.172ZM96.895,267.5L100.972,267.5C100.972,267.5 100.972,262.232 100.972,262.232C100.972,261.403 100.3,260.732 99.472,260.732C98.685,260.732 97.784,260.732 96.998,260.732C96.6,260.732 96.219,260.89 95.937,261.171C95.656,261.452 95.498,261.834 95.498,262.232L95.498,264.901C96.293,265.508 96.825,266.441 96.895,267.5ZM93.589,258.145C93.159,258.17 92.759,258.378 92.493,258.719C92.209,259.083 92.108,259.558 92.22,260.006L92.515,261.185C92.682,261.853 93.282,262.321 93.97,262.321L94.498,262.321L94.498,262.232C94.498,261.569 94.761,260.933 95.23,260.464C95.699,259.995 96.335,259.732 96.998,259.732C97.784,259.732 98.685,259.732 99.472,259.732C100.852,259.732 101.972,260.851 101.972,262.232L101.972,262.321L102.5,262.321C103.188,262.321 103.788,261.853 103.955,261.185L104.25,260.006C104.362,259.558 104.261,259.083 103.977,258.719C103.71,258.378 103.311,258.17 102.882,258.145C102.843,258.155 102.802,258.16 102.759,258.16L93.711,258.16C93.669,258.16 93.628,258.155 93.589,258.145ZM102.26,257.142L102.266,253.751C102.267,253.29 102.085,252.847 101.759,252.521C101.433,252.194 100.991,252.011 100.529,252.011L95.94,252.011C95.479,252.011 95.037,252.195 94.711,252.521C94.385,252.848 94.202,253.29 94.203,253.751L94.21,257.142L95.144,257.142L95.144,254.902C95.144,254.626 95.368,254.402 95.644,254.402C95.92,254.402 96.144,254.626 96.144,254.902L96.144,257.142L100.327,257.142L100.327,254.902C100.327,254.626 100.551,254.402 100.827,254.402C101.103,254.402 101.327,254.626 101.327,254.902L101.327,257.142L102.26,257.142ZM98.218,245.195C99.373,245.195 100.31,246.132 100.31,247.287C100.31,248.441 99.373,249.379 98.218,249.379C97.064,249.379 96.127,248.441 96.127,247.287C96.127,246.132 97.064,245.195 98.218,245.195Z"/></g></g></g><text x="0" y="71" fill="#000000" font-size="5px" font-weight="bold" font-family="'Helvetica Neue', Helvetica, Arial-Unicode, Arial, Sans-serif">Created by arificon96</text><text x="0" y="76" fill="#000000" font-size="5px" font-weight="bold" font-family="'Helvetica Neue', Helvetica, Arial-Unicode, Arial, Sans-serif">from the Noun Project</text></svg>