<?xml version="1.0" standalone="no"?>
<!DOCTYPE svg PUBLIC "-//W3C//DTD SVG 20010904//EN"
 "http://www.w3.org/TR/2001/REC-SVG-20010904/DTD/svg10.dtd">
<svg version="1.0" xmlns="http://www.w3.org/2000/svg"
 width="500.000000pt" height="500.000000pt" viewBox="0 0 500.000000 500.000000"
 preserveAspectRatio="xMidYMid meet">

<g transform="translate(0.000000,500.000000) scale(0.100000,-0.100000)"
fill="#000000" stroke="none">
<path d="M0 2500 l0 -2500 2500 0 2500 0 0 2500 0 2500 -2500 0 -2500 0 0
-2500z m4990 0 l0 -2490 -2490 0 -2490 0 0 2490 0 2490 2490 0 2490 0 0 -2490z"/>
<path d="M3538 4483 l-258 -3 0 -28 c0 -27 3 -28 66 -39 36 -6 68 -14 71 -16
2 -3 9 -54 15 -114 12 -135 5 -1216 -9 -1258 -9 -28 -15 -31 -74 -40 -61 -10
-64 -11 -67 -40 l-3 -30 398 -3 c431 -3 485 1 615 48 239 87 414 291 489 570
20 72 23 110 23 245 1 137 -3 171 -22 240 -76 263 -265 427 -537 465 -38 5
-155 9 -260 7 -104 -1 -306 -3 -447 -4z m598 -118 c203 -39 355 -167 419 -352
68 -196 47 -488 -51 -687 -73 -151 -202 -255 -360 -292 -86 -20 -289 -14 -411
11 l-82 18 -8 76 c-11 102 -8 1104 3 1160 8 39 14 46 40 53 110 28 336 35 450
13z"/>
<path d="M1730 4451 c0 -28 2 -30 55 -36 87 -11 84 -6 95 -210 17 -330 7
-1181 -15 -1203 -3 -3 -33 -10 -68 -17 -58 -10 -62 -13 -65 -40 l-3 -30 253 2
253 1 3 22 c5 29 -10 38 -76 46 -39 5 -56 12 -64 28 -8 14 -13 125 -16 357
l-4 336 192 7 c105 3 282 3 392 0 l200 -7 -4 -336 c-2 -235 -7 -342 -16 -357
-8 -16 -25 -23 -64 -28 -66 -8 -81 -17 -76 -46 l3 -22 253 -1 253 -2 -3 30
c-3 27 -7 30 -65 40 -35 7 -65 14 -68 17 -22 22 -33 878 -15 1203 11 204 9
199 95 210 53 6 55 8 55 36 l0 29 -256 0 -255 0 3 -27 c3 -26 8 -29 66 -39 34
-6 66 -14 69 -18 14 -13 22 -146 22 -357 l1 -216 -137 -6 c-75 -4 -189 -7
-253 -7 -64 0 -178 3 -253 7 l-137 6 1 211 c0 211 9 349 22 362 3 4 35 12 69
18 58 10 63 13 66 39 l3 27 -255 0 -256 0 0 -29z"/>
<path d="M190 4441 c0 -28 2 -30 69 -41 l70 -12 8 -56 c10 -74 10 -1197 0
-1283 l-8 -67 -56 -7 c-76 -9 -83 -13 -83 -44 l0 -26 230 0 230 0 0 27 c0 29
-7 33 -83 44 -26 3 -50 10 -52 15 -17 27 -53 1215 -38 1229 3 3 8 -1 10 -8 6
-15 632 -954 789 -1181 l99 -145 75 0 76 -1 -1 705 c0 388 4 726 8 752 l8 46
69 12 c68 11 70 13 70 41 l0 29 -230 0 -230 0 0 -29 c0 -28 2 -30 69 -41 l68
-11 6 -67 c14 -143 28 -679 25 -913 l-3 -246 -271 396 c-299 436 -387 570
-510 771 l-82 135 -166 3 -166 2 0 -29z"/>
<path d="M190 2565 l0 -235 2305 0 2305 0 0 235 0 235 -2305 0 -2305 0 0 -235z"/>
<path d="M1057 2217 c-24 -10 -33 -28 -63 -112 -74 -215 -118 -318 -136 -323
-40 -10 -14 -22 47 -22 37 0 65 4 65 10 0 6 -9 10 -20 10 -25 0 -25 -1 2 88
l21 73 86 -3 86 -3 22 -65 c27 -82 28 -90 3 -90 -11 0 -20 -4 -20 -10 0 -6 32
-10 75 -10 43 0 75 4 75 10 0 6 -9 10 -19 10 -10 0 -22 8 -25 17 -18 46 -106
287 -131 356 -15 42 -30 77 -34 77 -3 -1 -19 -6 -34 -13z m42 -143 c17 -47 31
-89 31 -95 0 -5 -31 -9 -70 -9 -38 0 -70 3 -70 7 0 23 63 192 70 188 4 -3 22
-43 39 -91z"/>
<path d="M2579 2216 c-91 -32 -147 -106 -156 -205 -13 -139 69 -244 202 -258
81 -8 141 12 195 66 97 97 94 258 -5 350 -64 59 -154 77 -236 47z m168 -49
c19 -12 45 -45 60 -75 22 -45 25 -62 21 -120 -6 -79 -25 -121 -72 -157 -83
-63 -198 -34 -248 64 -43 82 -34 204 19 263 52 59 153 71 220 25z"/>
<path d="M3981 2216 c-18 -10 -34 -42 -65 -132 -75 -215 -110 -297 -128 -302
-39 -10 -14 -22 47 -22 37 0 65 4 65 10 0 6 -9 10 -21 10 -23 0 -23 2 7 108
l15 53 86 -3 86 -3 24 -69 c28 -85 28 -86 3 -86 -11 0 -20 -4 -20 -10 0 -6 32
-10 76 -10 47 0 73 4 69 10 -3 6 -12 10 -20 10 -14 0 -59 109 -135 328 -24 67
-48 122 -54 122 -6 -1 -22 -7 -35 -14z m47 -147 c17 -48 28 -90 25 -93 -4 -3
-35 -6 -70 -6 -46 0 -63 4 -63 13 0 12 36 123 55 170 11 26 19 13 53 -84z"/>
<path d="M190 2210 c0 -5 8 -10 19 -10 24 0 31 -50 31 -210 0 -160 -7 -210
-31 -210 -11 0 -19 -4 -19 -10 0 -6 28 -10 65 -10 37 0 65 4 65 10 0 6 -9 10
-19 10 -17 0 -19 13 -26 175 -4 97 -5 178 -3 180 3 3 63 -82 134 -188 96 -142
135 -193 152 -195 l22 -3 0 221 c0 213 1 222 20 227 41 11 18 23 -45 23 -37 0
-65 -4 -65 -10 0 -5 9 -10 19 -10 17 0 20 -10 26 -82 3 -46 5 -128 3 -183 l-3
-99 -125 191 -125 192 -47 0 c-27 1 -48 -3 -48 -9z"/>
<path d="M1443 2175 c-6 -25 -8 -45 -5 -45 2 0 14 11 26 23 16 17 38 26 76 30
30 4 56 4 59 1 9 -9 14 -289 6 -349 -5 -45 -10 -55 -26 -55 -10 0 -19 -4 -19
-10 0 -6 32 -10 75 -10 43 0 75 4 75 10 0 6 -9 10 -19 10 -16 0 -21 9 -26 44
-8 50 -3 352 6 360 3 3 29 3 58 -1 39 -4 60 -13 78 -32 l25 -26 -6 34 c-3 18
-6 40 -6 47 0 11 -34 14 -183 14 l-184 0 -10 -45z"/>
<path d="M2040 2215 c0 -3 11 -10 25 -15 l25 -10 0 -200 0 -200 -25 -10 c-14
-5 -25 -12 -25 -15 0 -3 34 -5 75 -5 43 0 75 4 75 10 0 6 -8 10 -19 10 -17 0
-19 11 -26 105 -4 58 -4 152 0 210 7 94 9 105 26 105 11 0 19 5 19 10 0 6 -32
10 -75 10 -41 0 -75 -2 -75 -5z"/>
<path d="M3120 2210 c0 -5 9 -10 20 -10 19 0 20 -7 20 -210 0 -203 -1 -210
-20 -210 -11 0 -20 -4 -20 -10 0 -6 28 -10 65 -10 37 0 65 4 65 10 0 6 -9 10
-19 10 -17 0 -20 11 -26 113 -4 61 -5 143 -3 181 l3 68 129 -195 c110 -166
133 -194 154 -194 l25 0 -7 146 c-3 80 -3 181 0 224 6 66 10 77 25 77 11 0 19
5 19 10 0 6 -28 10 -65 10 -37 0 -65 -4 -65 -10 0 -5 9 -10 19 -10 17 0 20
-11 26 -132 4 -73 5 -155 3 -183 l-3 -49 -117 175 c-65 97 -120 183 -124 193
-4 12 -19 16 -55 16 -27 0 -49 -4 -49 -10z"/>
<path d="M4440 2210 c0 -5 8 -10 19 -10 26 0 31 -35 31 -210 0 -175 -5 -210
-31 -210 -11 0 -19 -4 -19 -10 0 -6 63 -10 170 -10 l169 0 11 41 c14 50 7 74
-10 37 -7 -15 -19 -29 -27 -32 -30 -12 -178 -17 -193 -7 -12 8 -16 41 -18 162
-5 187 2 239 29 239 10 0 19 5 19 10 0 6 -32 10 -75 10 -43 0 -75 -4 -75 -10z"/>
<path d="M190 1415 l0 -235 2305 -2 2305 -3 0 238 0 237 -2305 0 -2305 0 0
-235z"/>
<path d="M1047 1070 c-74 -19 -117 -66 -117 -130 0 -50 41 -82 153 -119 124
-42 148 -71 112 -141 -28 -53 -130 -64 -202 -20 -23 13 -30 24 -26 38 10 41
-16 30 -33 -14 -15 -39 -15 -47 -3 -55 54 -35 199 -40 259 -9 69 35 95 101 65
164 -20 41 -52 61 -159 96 -70 23 -116 56 -116 84 0 32 44 68 90 73 58 6 124
-15 128 -42 6 -33 21 -40 30 -14 25 65 25 67 -10 78 -51 16 -129 21 -171 11z"/>
<path d="M1960 1071 c-113 -23 -184 -114 -185 -236 0 -89 31 -156 94 -200 40
-28 49 -30 135 -30 84 0 96 2 134 28 67 44 96 97 101 184 4 94 -15 148 -73
201 -31 29 -58 43 -95 51 -57 12 -59 12 -111 2z m118 -45 c37 -19 78 -65 92
-101 19 -50 14 -151 -10 -200 -32 -67 -71 -90 -150 -90 -52 0 -72 5 -98 23
-86 62 -108 231 -40 317 48 61 142 85 206 51z"/>
<path d="M190 1060 c0 -4 8 -10 18 -12 25 -7 32 -52 32 -213 0 -162 -6 -202
-32 -211 -33 -10 -12 -16 57 -16 69 0 90 6 57 16 -26 9 -32 33 -32 134 l0 82
115 0 115 0 0 -104 c0 -95 -2 -104 -20 -109 -43 -11 -17 -22 51 -20 76 1 97 8
55 19 l-26 6 0 204 0 204 25 6 c48 12 25 22 -50 21 -73 0 -95 -9 -55 -22 18
-6 20 -15 20 -91 l0 -84 -115 0 -115 0 0 64 c0 74 13 116 35 116 8 0 15 4 15
9 0 5 -34 8 -75 8 -41 0 -75 -3 -75 -7z"/>
<path d="M700 1059 c0 -4 9 -11 20 -14 19 -6 20 -15 20 -210 l0 -203 -26 -6
c-43 -11 -20 -18 56 -18 76 0 99 7 56 18 l-26 6 0 204 0 204 25 6 c14 3 23 9
20 14 -6 10 -145 9 -145 -1z"/>
<path d="M2310 1060 c0 -4 11 -11 25 -14 l25 -6 0 -200 0 -199 -27 -15 c-16
-8 -26 -16 -23 -16 3 -1 38 -2 78 -3 68 -2 96 9 52 20 -18 5 -20 14 -20 100
l0 94 33 -3 c28 -3 42 -17 112 -110 75 -100 82 -107 115 -107 19 -1 42 3 50 9
12 7 10 11 -10 18 -22 8 -151 148 -173 187 -5 10 3 17 32 25 111 30 137 165
41 215 -23 12 -62 15 -170 14 -77 -1 -140 -5 -140 -9z m275 -44 c47 -31 39
-113 -14 -141 -37 -18 -96 -28 -126 -21 -24 6 -25 9 -25 90 0 80 1 85 23 89
37 9 118 -1 142 -17z"/>
<path d="M2720 1064 c0 -3 11 -15 25 -27 13 -12 54 -69 90 -127 l65 -105 0
-83 0 -83 -32 -14 c-18 -8 -31 -15 -28 -15 3 -1 42 -2 88 -3 81 -2 106 7 57
19 -24 6 -25 9 -25 93 l0 86 72 118 c40 64 81 120 90 123 36 11 16 21 -42 21
-64 0 -69 -3 -43 -22 15 -11 13 -18 -22 -81 -21 -38 -47 -84 -57 -102 -24 -39
-21 -42 -93 90 l-47 88 24 9 c12 6 21 11 18 12 -12 4 -140 7 -140 3z"/>
<path d="M3460 1060 c0 -5 9 -11 19 -15 16 -5 20 -20 26 -106 4 -55 4 -147 0
-204 -6 -90 -9 -104 -26 -108 -52 -14 -6 -22 119 -22 120 1 142 3 177 22 83
44 129 127 129 233 0 82 -28 139 -86 177 -41 27 -45 28 -200 30 -87 1 -158 -2
-158 -7z m307 -51 c53 -33 76 -88 71 -173 -4 -84 -29 -141 -78 -173 -27 -19
-47 -23 -105 -23 -50 0 -76 4 -84 14 -8 9 -11 69 -9 192 l3 179 30 7 c48 11
136 -1 172 -23z"/>
<path d="M4157 1058 c-9 -7 -41 -80 -70 -163 -90 -246 -97 -263 -121 -271 -15
-5 -3 -9 44 -13 74 -7 95 -2 59 13 -13 5 -25 10 -26 11 -1 1 8 35 20 76 l23
74 85 3 85 3 26 -80 26 -79 -25 -7 c-14 -3 -23 -8 -20 -11 6 -7 147 -11 147
-5 0 2 -10 13 -23 25 -21 19 -119 264 -157 394 -14 45 -39 55 -73 30z m52
-131 c17 -49 31 -93 31 -98 0 -5 -31 -9 -70 -9 -38 0 -70 1 -70 3 0 8 59 178
65 188 9 14 9 15 44 -84z"/>
<path d="M4380 1059 c0 -4 8 -10 18 -13 9 -3 50 -59 90 -125 l72 -118 0 -86
c0 -82 -1 -85 -25 -91 -48 -12 -24 -21 55 -21 79 0 103 9 55 21 -24 6 -25 9
-25 91 0 84 1 86 49 167 71 117 109 166 128 166 9 0 13 3 9 8 -8 8 -126 12
-126 4 0 -3 7 -10 17 -17 15 -11 12 -21 -32 -101 -26 -49 -52 -95 -58 -102
-12 -15 -18 -8 -82 111 -46 85 -47 88 -26 94 42 11 20 20 -49 20 -38 0 -70 -3
-70 -8z"/>
<path d="M1327 1023 c-8 -46 -3 -52 21 -23 15 19 31 24 81 28 l61 4 0 -200 0
-200 -26 -6 c-42 -11 -21 -18 55 -19 68 -2 94 9 51 20 -19 5 -20 14 -20 205
l0 200 61 -4 c50 -4 65 -9 79 -29 24 -31 32 -22 19 24 l-10 37 -183 0 -183 0
-6 -37z"/>
</g>
</svg>
