<svg xmlns="http://www.w3.org/2000/svg" xmlns:xlink="http://www.w3.org/1999/xlink" version="1.1" x="0px" y="0px" viewBox="0 0 53 66.25" enable-background="new 0 0 53 53" xml:space="preserve"><g><path d="M4.83398,51.49738h31.25586c1.875,0,3.40039-1.52539,3.40039-3.3999v-34.0722   c0.00409-0.03668,0.02148-0.06873,0.02148-0.10651c0-0.32007-0.15277-0.60168-0.38629-0.78467   C23.81894-2.16787,28.80254,2.81426,27.77832,1.79034c-0.31026-0.31026-0.68803-0.25947-0.78833-0.2876   c-0.00537,0.00043-0.01062-0.00049-0.01593,0H4.83398c-1.87402,0-3.39941,1.5249-3.39941,3.39941v43.19531   C1.43457,49.97198,2.95996,51.49738,4.83398,51.49738z M36.07813,12.91876h-6.47754c-0.84277,0-1.5293-0.68604-1.5293-1.52979   V4.91919C28.8901,5.73726,25.10552,1.95611,36.07813,12.91876z M3.43457,4.90216c0-0.77148,0.62793-1.39941,1.39941-1.39941   h21.2373v7.88623c0,1.94629,1.58301,3.52979,3.5293,3.52979h7.88965v33.17871c0,0.77197-0.62793,1.3999-1.40039,1.3999H4.83398   c-0.77148,0-1.39941-0.62793-1.39941-1.3999V4.90216z"/><path d="M33.5,33.65411H7.42871c-0.55273,0-1,0.44775-1,1s0.44727,1,1,1H33.5c0.55273,0,1-0.44775,1-1   S34.05273,33.65411,33.5,33.65411z"/><path d="M33.5,25.72882H7.42871c-0.55273,0-1,0.44775-1,1s0.44727,1,1,1H33.5c0.55273,0,1-0.44775,1-1   S34.05273,25.72882,33.5,25.72882z"/><path d="M6.42871,18.80304c0,0.55225,0.44727,1,1,1H33.5c0.55273,0,1-0.44775,1-1s-0.44727-1-1-1H7.42871   C6.87598,17.80304,6.42871,18.25079,6.42871,18.80304z"/><path d="M33.5,41.57355H7.42871c-0.55273,0-1,0.44775-1,1s0.44727,1,1,1H33.5c0.55273,0,1-0.44775,1-1   S34.05273,41.57355,33.5,41.57355z"/><path d="M7.41602,11.8836h13.50684c0.55273,0,1-0.44775,1-1s-0.44727-1-1-1H7.41602c-0.55273,0-1,0.44775-1,1   S6.86328,11.8836,7.41602,11.8836z"/><path d="M49.16992,11.40411h-1.24707V9.59405c0-0.83936-0.68262-1.52246-1.52246-1.52246h-0.96973V5.81134c0-0.55225-0.44727-1-1-1   s-1,0.44775-1,1v2.26025h-0.9707c-0.83984,0-1.52246,0.68311-1.52246,1.52246v32.31543c0,3.77002,0.89453,5.69385,2.60742,9.04346   c0.14648,0.28467,0.4248,0.47705,0.74023,0.52686c0.05078,0.00781,0.10156,0.01172,0.15137,0.01172   c0.2666,0,0.52637-0.10791,0.7168-0.29785c0.07422-0.07422,0.13672-0.15967,0.18359-0.25293   c1.69922-3.33398,2.58594-5.24951,2.58594-9.03125V13.40411h1.24707c0.21777,0,0.39551,0.17773,0.39551,0.396v9.78564   c0,0.55225,0.44727,1,1,1s1-0.44775,1-1v-9.78564C51.56543,12.47882,50.49121,11.40411,49.16992,11.40411z M45.92285,10.07159   v1.33252H42.9375v-1.33252H45.92285z M44.43652,48.26154c-0.8952-1.87384-1.36377-3.28052-1.47278-5.35205h2.93335   C45.78943,44.98956,45.32465,46.39423,44.43652,48.26154z M45.92285,40.90948H42.9375V13.40411h2.98535V40.90948z"/></g><text x="0" y="68" fill="#000000" font-size="5px" font-weight="bold" font-family="'Helvetica Neue', Helvetica, Arial-Unicode, Arial, Sans-serif">Created by Vectors Point</text><text x="0" y="73" fill="#000000" font-size="5px" font-weight="bold" font-family="'Helvetica Neue', Helvetica, Arial-Unicode, Arial, Sans-serif">from the Noun Project</text></svg>